<svg id="Capa_1" data-name="Capa 1" xmlns="http://www.w3.org/2000/svg" viewBox="0 0 60 60">
  <defs>
    <style>
      .cls-1 {
        fill: #3c9a39;
      }

      .cls-2 {
        fill: #fffffd;
      }
    </style>
  </defs>
  <title>ISOTIPO BALAM</title>
  <g>
    <path class="cls-1" d="M53.05,38.37a1.88,1.88,0,0,0,1.64-.95,2,2,0,0,0,0-2.74,9.49,9.49,0,0,0-2.36-2.37c-.63-.44-.65-.5-.37-1.22a1.49,1.49,0,0,1,.45-.71c.2.06.13.23.17.36a2,2,0,0,0,2,1.54,1.82,1.82,0,0,1,1.7,1.08.82.82,0,0,1-.11,1c-.48.36-.31.74-.2,1.16,0,0,.09,0,.09,0a1.64,1.64,0,0,1,1.1-1.21c.43-.16.44-.6.16-1a4.74,4.74,0,0,0-1.37-1.13,2,2,0,0,1,2,1,1,1,0,0,0-.07-1,1.55,1.55,0,0,0-.63-.64,14.41,14.41,0,0,1-2.51-1.78,7.91,7.91,0,0,0-3.48-1.53.77.77,0,0,1-.6-.38,5,5,0,0,0-2.94-2.25,2.34,2.34,0,0,1-.73-.43,14.85,14.85,0,0,0-2.6-1.76c-.12-.07-.37-.1-.29-.31s.3-.08.46,0a7,7,0,0,1,1.34.66c.09.06.19.21.32.09s.06-.23,0-.36a1.76,1.76,0,0,0-2-1.22,16.93,16.93,0,0,1-5.22.94,65.07,65.07,0,0,1-11.51-.05c-.39,0-.89-.34-1.15,0s.19.7.3,1.08c0,.11,0,.24.07.39-.26,0-.33-.24-.44-.37a14.64,14.64,0,0,0-5.59-4.52,8.8,8.8,0,0,0-6.9-.32,3.36,3.36,0,0,0-2.09,4.53,10.44,10.44,0,0,0,3.21,4.63,26.13,26.13,0,0,0,2.63,2.17c.11.08.35.14.21.35s-.25,0-.38,0a19.58,19.58,0,0,1-5.4-4,5.92,5.92,0,0,1-1.57-3.81c0-.39-.14-.5-.52-.42a5.66,5.66,0,0,1-1.59.1c-.16,0-.35-.09-.51.08.18.18.42.18.63.26s.44,0,.41.23-.32.16-.49.15c-.61,0-1.21-.07-1.81-.1A9.15,9.15,0,0,0,4,23.59a1.75,1.75,0,0,0-1.5,2.31A15.46,15.46,0,0,0,4.4,30.47,46.88,46.88,0,0,1,7,35.25a21.81,21.81,0,0,1,1.61,7.69v.21c0,.12,0,.28-.16.29s-.17-.14-.19-.26c-.11-.69-.21-1.37-.33-2.06a21.72,21.72,0,0,0-2.79-6.88c-1.18-2.11-2.46-4.17-3.46-6.38a7.18,7.18,0,0,1-.74-2.49,2.52,2.52,0,0,1,1.93-2.86,12.21,12.21,0,0,1,3.8-.44,27.18,27.18,0,0,0,3.25-.24.77.77,0,0,0,.65-.45,5.08,5.08,0,0,1,3.56-2.66c.57-.13,1.15-.23,1.73-.32a3,3,0,0,0,1.7-.67,3.14,3.14,0,0,1,.86-.52c.26-.12.28-.25.24-.5-.54-3.17-1.07-6.35-1.6-9.52,0-.15-.11-.31,0-.52a23.33,23.33,0,0,1,3.77,3,.47.47,0,0,1,0,.73,2.13,2.13,0,0,0-.48,2.18,1.43,1.43,0,0,0,1.88,1.08A1.56,1.56,0,0,0,23,11.5a4.19,4.19,0,0,0-1-1.13c-.6-.54-.6-.56-.16-1.22C22.66,8,23.5,6.89,24.34,5.79c.26-.34.44-.35.76-.07a36.05,36.05,0,0,1,3.11,3.07.57.57,0,0,1,0,.85c-.26.31-.54.62-.77.95a1.37,1.37,0,0,0-.21,1.59,1.49,1.49,0,0,0,1.6.72,1.74,1.74,0,0,0,1.56-1.19,1.84,1.84,0,0,0-.69-2c-.63-.58-.63-.56,0-1.23,1-1.09,1.93-2.18,2.87-3.3.24-.29.39-.31.66,0a22,22,0,0,1,2.84,3.53.53.53,0,0,1-.11.76c-.3.3-.62.59-.9.91a1.52,1.52,0,0,0-.28,1.82,1.48,1.48,0,0,0,1.62.66,1.64,1.64,0,0,0,1.34-2.57l-.26-.4c-.55-.72-.56-.77.07-1.43A35.53,35.53,0,0,1,41,5.42c.23-.19.37-.19.53.09.73,1.22,1.49,2.42,2.13,3.7a.62.62,0,0,1-.18.88,6.94,6.94,0,0,0-1.18,1.3A2,2,0,0,0,41.9,13a.9.9,0,0,0,1.13.78,2.13,2.13,0,0,0,1.48-3.27.61.61,0,0,1,.13-.94,29.72,29.72,0,0,1,4.22-2.94c-.14.63-.24,1.14-.36,1.64-1,4.06-1.92,8.14-3,12.16-.1.36-.36.74-.31,1.06s.61.32.89.55a2.38,2.38,0,0,1,1,1.55A1.79,1.79,0,0,0,48.14,25,7.44,7.44,0,0,1,51,27a2.57,2.57,0,0,0,1,.64,11.48,11.48,0,0,1,4.32,2.67,1.92,1.92,0,0,0,.7.35,2.54,2.54,0,0,1,1.42,3.36A3.35,3.35,0,0,1,57,36a3.85,3.85,0,0,0-1.71,2.41,1.2,1.2,0,0,1-.8.86c-.37.12-.72.1-.91-.3C53.48,38.72,53.26,38.65,53.05,38.37ZM23.46,17.74c0,.65,0,1.31,0,2,0,.48.12.67.62.75,1,.14,1,.18,1-.84,0-.15-.15-.41.17-.46a.47.47,0,0,1,.59.31c.17.37.44.7.57,1.08A1.29,1.29,0,0,0,28,21.5h.06c.45.06.42-.16.26-.46-.3-.54-.59-1.09-.9-1.62-.14-.26-.22-.42.14-.61a1.81,1.81,0,0,0,.87-2.1,1.78,1.78,0,0,0-1.41-1.49,17.75,17.75,0,0,0-3.34-.1c-.26,0-.26.19-.26.37Zm6.74.56c0,.88,0,1.75,0,2.62,0,.37.12.49.49.48,1.37,0,2.74,0,4.1,0,.33,0,.47-.08.42-.41a1.55,1.55,0,0,1,0-.43c0-.35-.1-.46-.45-.44-.83.05-1.66,0-2.49.09-.38,0-.52-.1-.49-.48s-.08-.7.46-.69,1.11,0,1.66,0c.16,0,.3,0,.34-.23.15-.75,0-.94-.74-.94h-.69c-1.2,0-1,.11-1-1,0-.36.08-.51.47-.49.73,0,1.46,0,2.19,0s.76,0,.77-.79c0-.37-.09-.48-.47-.48-1.38,0-2.77,0-4.15.08-.29,0-.4.08-.39.39C30.22,16.49,30.2,17.4,30.2,18.3Zm10.11,1.44a3.3,3.3,0,0,0-.93-2.87,6.48,6.48,0,0,1-.61-.87A1.54,1.54,0,0,0,37,15.11c-.12,0-.27-.07-.33.09s.07.23.14.33a10,10,0,0,0,.83,1.11,4.39,4.39,0,0,1,1.19,3.63c-.09,1.27-.29,1.09,1.16,1.12.27,0,.38-.1.37-.37C40.3,20.59,40.31,20.16,40.31,19.74Zm1.43-4.61a1,1,0,0,0-1.17.57,4.87,4.87,0,0,1-.53.73.46.46,0,0,0,0,.73,1.21,1.21,0,0,1,.24.35c.16.31.3.34.51,0,.41-.59.86-1.17,1.28-1.76.12-.18.42-.35.32-.57S42,15.17,41.74,15.13ZM17.86,18.2c.21.17.43.11.63.14s.32.11.37-.06a.6.6,0,0,0-.09-.55c-.11-.13-.26,0-.37.09A1.28,1.28,0,0,0,17.86,18.2Z"/>
    <path class="cls-1" d="M11.16,54.78a34.37,34.37,0,0,1,11.13-6,10.9,10.9,0,0,1-5.89-3.44c0,.61.33,1,.33,1.5a7.64,7.64,0,0,1-2-5.42c1.17,2.29,2.46,4.47,4.86,5.7A6.9,6.9,0,0,1,18.37,45a2.91,2.91,0,0,1,.34.29,8.31,8.31,0,0,0,6.45,2.8,15.88,15.88,0,0,1,5.8,1,.36.36,0,0,0,.15,0c.13-.2-.15-.31-.07-.54a7,7,0,0,1,3.65,2.15A15.93,15.93,0,0,1,34.51,46a4,4,0,0,1,.34,1.42,22,22,0,0,0,1.28,4.72,2.33,2.33,0,0,1,.13.52,2.05,2.05,0,0,0,2.08,2.07,5.18,5.18,0,0,0,3.76-1.23c.23-.19.38-.36-.07-.47A2.53,2.53,0,0,1,40.54,52a13,13,0,0,1-2.08-4.41,8.44,8.44,0,0,1,.65-5c.1-.25.22-.49.32-.74.92-2.33,2.78-3.43,5.12-4a13.54,13.54,0,0,1,7.87.48,2.23,2.23,0,0,1,1.13,1.15.24.24,0,0,1-.07.34c-.41.26-.66.86-1.32.65-.15-.05-.2.17-.28.28l-1.38,1.7a.62.62,0,0,1-.44.33l-.14-2.14-.12,0L48,43.21a16.63,16.63,0,0,1-.49-2.92c0-.49-.21-.59-.67-.48a11.32,11.32,0,0,0-2.95,1.07,2.88,2.88,0,0,0-1.47,3.7A9.38,9.38,0,0,0,44,47.37c.21.28.43.25.7.15s.3-.12.37.06-.14.22-.25.26a1.71,1.71,0,0,1-.61.15,2.31,2.31,0,0,0-1.94,1,2.15,2.15,0,0,1-.31.23c.25-.61.69-1,.78-1.5-.16-.15-.27,0-.37.08a3.08,3.08,0,0,1-2.26.35c-.25-.05-.57-.19-.73.12s.1.5.29.68c.44.38.87.82,1.56.53.14-.06.26.09.39.14s.49.23.74,0a.24.24,0,0,1,.19-.06c.56.26,1-.06,1.5-.35.12.45.32,1,.06,1.24a2.08,2.08,0,0,1-2.37.55,2.27,2.27,0,0,0,1.14,1,.46.46,0,0,0,.5-.08c.57-.5,1.19-1,1-1.88a1.84,1.84,0,0,1,.94-2,4.39,4.39,0,0,0,.72-.71c.1-.1.18-.27.34-.17s0,.26,0,.37a2.89,2.89,0,0,1-.88,1A1.1,1.1,0,0,0,45,49.8,3.14,3.14,0,0,1,44.52,52a1.36,1.36,0,0,1-.37.45c-.8.47-1.21,1.32-1.85,1.95a4.55,4.55,0,0,1-4,1.54A4.11,4.11,0,0,1,35.09,53a1.75,1.75,0,0,0-.49-.75,13.76,13.76,0,0,0-8-3.12,12,12,0,0,0-4.84.93A46.65,46.65,0,0,0,14,53.7,11.1,11.1,0,0,1,11.16,54.78ZM48.38,41.61a30.75,30.75,0,0,1,2.35-3c.22,1.07.22,1.07,1.17.74a.84.84,0,0,1,.14-.06c.18,0,.34-.12.21.19a.31.31,0,0,0,.23.43c.18,0,.18-.23.2-.38a.82.82,0,0,0-.69-.88l-1.34-.36a3.29,3.29,0,0,0-1.94-.12c-.3.11-.65.2-.67.6A9.85,9.85,0,0,0,48.38,41.61Zm2.12-1.69a3.89,3.89,0,0,0-.06,1.6c.28-.36.49-.65.71-.92s.46-.51.78-.87C50.8,40.14,50.78,40.14,50.5,39.92ZM19.66,47.17l0,0,0,0,0-.06Z"/>
    <path class="cls-1" d="M25,28c-.17-.47-.34-.9-.46-1.34a1.57,1.57,0,0,0-1.73-1.18c-.2,0-.58.15-.57-.15s.4-.14.62-.18.38.09.63-.05a5.19,5.19,0,0,0-1.81-.86c-.15-.05-.43,0-.36-.28s.27-.09.42-.08.37.14.56,0c0-.23-.2-.28-.32-.38a10.43,10.43,0,0,0-3-1.68c-.14-.06-.37-.06-.3-.29s.27-.09.42,0a8.86,8.86,0,0,1,1.7.61c.14.07.27.24.48.11,0-.24-.25-.33-.41-.45a9.81,9.81,0,0,0-3-1.58c-.15-.05-.43,0-.36-.27s.27-.11.42-.08a9.24,9.24,0,0,1,6.29,4,5.56,5.56,0,0,1,.89,3.81C25.17,27.7,25.19,27.84,25,28Z"/>
    <path class="cls-1" d="M35.19,26.35c1.13.45,2-.14,2.89-.61A6.05,6.05,0,0,1,40.44,25a2.18,2.18,0,0,1,1.23.24c-.47.67-.41.93.34,1.31.37.18.75.31,1.13.47.1,0,.23,0,.24.17s-.12.12-.18.18a2.76,2.76,0,0,1-2.5.57c-.23,0-.28-.15-.29-.36a3.39,3.39,0,0,0-.2-1.09.69.69,0,0,0-1.1-.42,1.69,1.69,0,0,0-1,1.18c0,.18-.08.25-.27.2L36,27A1.26,1.26,0,0,1,35.19,26.35Z"/>
    <path class="cls-1" d="M42.4,29.08a4.63,4.63,0,0,0-1.71.48.67.67,0,0,1-.86-.18A7.74,7.74,0,0,0,37.63,28c-.13-.07-.42-.07-.32-.32s.3-.06.46,0c.34.06.69.49,1,0a.79.79,0,0,1,.23.09,1.94,1.94,0,0,1,.42.32,1.8,1.8,0,0,0,2.32.41c.68-.26,1.36-.52,2.05-.75a7.08,7.08,0,0,1,3.95-.05c.14,0,.42,0,.37.27s-.26.12-.41.11a6.7,6.7,0,0,0-3.84.62,8.48,8.48,0,0,0-1.3.92c-.13.11-.26.35-.44.18s.11-.28.17-.43S42.36,29.18,42.4,29.08Z"/>
    <path class="cls-2" d="M19.66,47.17h0l0,.06,0,0Z"/>
    <path class="cls-1" d="M25.06,17.05c-.13-.47.09-.62.64-.59.81.05,1.19.23,1.18.68s-.5.74-1.28.74C25.06,17.88,25.06,17.88,25.06,17.05Z"/>
  </g>
</svg>
