<?xml version="1.0" encoding="utf-8"?>
<!-- Generator: Adobe Illustrator 22.0.1, SVG Export Plug-In . SVG Version: 6.00 Build 0)  -->
<svg version="1.1" id="Capa_1" xmlns="http://www.w3.org/2000/svg" xmlns:xlink="http://www.w3.org/1999/xlink" x="0px" y="0px"
	 viewBox="0 0 1920 1261" style="enable-background:new 0 0 1920 1261;" xml:space="preserve">
<style type="text/css">
	.st0{fill:#609740;}
</style>
<g>
	<g>
		<path class="st0" d="M1325.5,660.8c-2.5-16.6-5.1-33.1-8.1-49.6c-1.5-8.2-3-16.5-4.8-24.6c-1.7-8.2-3.7-16.2-6.7-24
			c-5.8-15.6-12.5-31-19.3-46.3s-13.7-30.6-20.7-45.7l-0.1-0.2l-0.1-0.2c-1.6-6-2.7-12.1-2.9-18.4c-0.1-6.3,0.8-12.9,3.7-18.9
			c2.8-6.1,8-11.1,13.8-14.1c5.9-3.1,12.3-4.5,18.6-5.1h0.3h0.3l57.6,4.5l-4.2,2.6c1.2-2.8,2.5-4.8,4-7c1.5-2.1,3.1-4,4.9-5.8
			c3.5-3.6,7.6-6.7,12-9.2c8.8-5.1,18.5-7.7,28.3-8.8c9.7-0.8,19-0.8,28.4-0.8c9.4,0.1,18.7,0.3,28.1,0.6l-2.6,0.6l14-7.8l0.5-0.3
			l0.6-0.2c23.6-6.7,49.7-4.3,71.9,6.6l0.3,0.1l0.3,0.2l24.2,15.7l-2.7-0.9c13.4,1,26.6,2.4,39.9,4.1c6.7,0.9,13.3,1.8,20,3.1
			c3.4,0.7,6.7,1.3,10.2,2.3c1.8,0.5,3.6,1,5.2,1.8c1.7,0.6,3.4,1.3,4.9,2.1c12.6,5.9,24,12.7,35.5,19.5c11.5,6.9,22.7,14,33.9,21.4
			l-1.7-0.8l1.4,0.4l-0.9-0.2c11.2,1.9,22.6,5.7,32.1,13.4c4.7,3.8,8.8,8.6,11.7,14.1c2.9,5.5,4.6,11.6,5.2,17.6l0.1,2.3l0.1,1.1
			v0.6v0.1v0.1c0.8,1.3-6.8-11.2-3.6-5.9l0,0l0.2,0.1l3.5,1.8l7,3.7l3.5,1.8l3.7,2c2.7,1.6,5.3,3.5,7.6,5.7c2.3,2.2,4.3,4.7,6,7.3
			s3.1,5.8,4,8l6.3,14.5l-2.8-3.2l33.9,19.7l8.5,4.9l4.3,2.5c1.5,0.9,3.1,1.9,4.5,2.9c5.9,4.1,11.2,9,15.8,14.4
			c2.3,2.8,4.5,5.9,6.3,9.3c0.9,1.7,1.7,3.4,2.4,5.4c0.7,2,1.2,4.1,1.5,6.2c0.5,4.2,0.2,8.5-1,12.5c-0.6,2-1.3,3.9-2.3,5.8
			c-0.9,1.9-2.1,3.7-3,5c-0.5,0.8-0.9,1.4-1.8,2.5l-0.5,0.6c-0.2,0.2-0.3,0.3-0.8,0.7l-0.4,0.3l-0.5,0.4l-1,0.7l-4,2.8l-2,1.4
			c-0.6,0.4-1.2,0.8-1.8,1.3c-1.2,0.9-2.3,1.8-3.4,2.8c-4.3,3.8-8,8.4-10.9,13.4l-0.4,0.6l-0.4,0.5c-2.3,2.6-4.5,4.9-6.9,7.3
			c-1.2,1.2-2.5,2.4-3.9,3.6c-1.5,1.2-2.7,2.4-5.6,3.9l-0.5,0.3l-0.8,0.2l-2,0.5c-0.8,0.2-1.7,0.4-2.5,0.5c-1.7,0.3-3.4,0.4-5.1,0.4
			c-3.4,0-6.8-0.5-10.1-1.6l-0.7-0.2l-0.6-0.3l-17.1-9.5l-8.6-4.8c-2.8-1.6-5.2-2.8-7.9-3.9c-2.7-1.1-5.2-1.8-8.3-2.4
			c-3-0.6-6-1.1-9-1.4c-6.1-0.7-12.2-0.7-18.2-0.2c-12.1,1-24.1,4.3-35,9.7c-2.8,1.3-5.4,2.8-8,4.4c-2.7,1.6-5.3,3.3-7.8,5.1
			c-4.9,3.5-9.1,7.4-11.9,11.9c-0.7,1.2-1.2,2.1-1.9,3.6c-0.6,1.4-1.2,2.8-1.8,4.2c-1.1,2.9-2.2,5.8-3.1,8.7
			c-1.8,5.9-3.3,11.9-4.1,18c-1.7,12.1-1.5,24.5,2.1,35.8c1.6,5.7,4.2,10.3,8,14.4c3.8,4,8.5,7.3,13.9,9.9
			c5.4,2.6,11.2,4.4,17.5,6.3c1.6,0.5,3.2,0.9,5,1.6l1.3,0.5h0.1c0.1,0,0.5,0.2,0.8,0.4c0.6,0.3,1.1,0.7,1.6,1.2s0.9,1.1,1.1,1.5
			c0.2,0.3,0.3,0.7,0.4,1c0.2,0.7,0.4,1.5,0.4,2c0,0.3,0,0.7,0,1c-0.2,2.4-0.7,3.3-1.1,4.4c-0.8,2-1.7,3.6-2.7,5.3
			c-0.5,0.8-1,1.6-1.6,2.5c-0.3,0.4-0.7,0.9-1.1,1.4c-0.2,0.2-0.5,0.6-0.8,0.9l-0.2,0.2l-0.5,0.4c-0.3,0.3-0.7,0.5-1,0.7l1.6-1.3
			l-12.8,14.5l-6.4,7.2c-1,1.2-2.5,2.9-4,4.2s-3.2,2.5-5,3.5s-3.7,1.8-5.6,2.4c-1.8,0.6-3.6,1-5.4,1.4c-3.7,0.7-7.4,0.9-11.1,0.7
			c-7.4-0.4-14.7-2.5-21.1-6.3c-1.6-0.9-3.1-2-4.6-3.1c-1.4-1.2-2.9-2.2-4.4-3.9c-2.9-3-4.8-6.9-6-10.3c-1.9-5-5.4-10.4-8.9-15.5
			c-3.6-5.2-7.5-10.2-11.4-15.2l-6.1-7.4c-2.1-2.4-4.1-5-6.1-6.9c-2-2-4.3-3.9-6.7-5.5l-8-5.2l-16.2-10.5c-10-6-22.5-8.5-34.9-9.5
			c-12.5-1-25.2-0.6-37.8,0.9c-12.6,1.5-25.1,4-36.9,8l0.4-0.2l-57.2,27.5l-28.6,13.7l-14.3,6.8l-7.3,3.4c-2.2,0.9-4.9,0.5-6.7-1
			c-1.8-1.4-2.9-3.9-2.6-6.1l0.1-0.6l0.2-0.4l9.7-17.7c3.3-5.7,5.7-11.7,7.1-18.1c1.4-6.3,1.9-12.9,1.3-19.4
			c-0.2-1.6-0.3-3.2-0.7-4.7l-1.1-4.9l-1.2-4.9l-0.6-2.4l-0.3-1.1l-0.2-0.5c0,0-0.1-0.1,0,0s0,0,0.3,0.3s0.7,0.4,1.1,0.4
			c0.5,0.1,1.5-0.4,1.6-0.9l0.2-0.6l-5.9,30.9c-0.9,5.2-2.5,10.5-4.9,15.3c-1.1,2.4-2.5,4.7-4,6.9c-1.4,2.2-2.9,4.4-4.4,6.6
			c-6.1,8.6-12.9,16.7-20,24.4s-14.6,15.1-22.4,22.1c7.6-7.2,14.8-14.9,21.6-22.8c6.8-7.9,13.3-16.2,19-24.9
			c1.4-2.2,2.8-4.4,4.2-6.6c1.4-2.2,2.6-4.4,3.7-6.8c2.1-4.7,3.5-9.6,4.3-14.7l5.1-31v-0.2l0.2-0.4c0.2-0.5,1.2-1.1,1.8-1
			c0.4,0,0.9,0.2,1.2,0.5c0.4,0.4,0.3,0.4,0.5,0.6c0.1,0.2,0.2,0.4,0.3,0.5l0.3,0.7l0.4,1.3l0.7,2.5l1.3,4.9l1.2,4.9
			c0.5,1.7,0.7,3.5,0.9,5.2c0.8,6.9,0.5,13.9-0.8,20.8c-1.3,6.8-3.9,13.5-7.1,19.5l-9.2,17.9l0.3-1c-0.1,0.7,0.8,1.2,1.2,0.9
			l6.9-3.5l14.2-7.2l28.3-14.2l56.7-28.3l0.2-0.1l0.2-0.1c12.6-4.6,25.6-7.4,38.7-9.1c13.1-1.7,26.3-2.4,39.6-1.5
			c6.7,0.4,13.3,1.3,20,2.8l5,1.3c1.6,0.5,3.3,1.1,4.9,1.7c1.6,0.5,3.3,1.3,4.9,2.1s3.4,1.5,4.6,2.4l16.5,10.4l8.3,5.2
			c3,2,5.8,4.2,8.3,6.7c2.6,2.6,4.7,5.1,6.8,7.5l6.3,7.5c4.2,5.1,8.2,10.2,12.1,15.6c3.8,5.5,7.7,10.9,10.5,18
			c1,2.7,2.2,4.6,3.8,6.3c0.7,0.8,1.8,1.6,2.9,2.5c1.1,0.8,2.3,1.6,3.5,2.2c4.8,2.7,10.3,4.3,15.8,4.5c2.8,0.1,5.5-0.1,8.2-0.6
			c1.3-0.3,2.7-0.6,4-1.1c1.3-0.4,2.3-0.8,3.3-1.4c1-0.6,2-1.3,2.9-2.1c1-0.8,1.6-1.5,2.7-2.8l6.4-7.3l12.8-14.7l1.6-1.3
			c-0.2,0.1-0.4,0.2-0.5,0.3l-0.2,0.2l0,0c0,0,0,0.1,0,0c0.1-0.2,0.2-0.3,0.4-0.6c0.3-0.5,0.7-1,1-1.6c0.7-1.2,1.3-2.4,1.7-3.5
			c0.2-0.4,0.3-1.1,0.2-0.3c0,0.1,0,0.3,0,0.4c0,0.3,0.1,1,0.3,1.4c0.1,0.2,0.2,0.5,0.3,0.7c0.2,0.4,0.5,0.9,0.9,1.3
			c0.4,0.4,0.9,0.8,1.4,1c0.2,0.1,0.6,0.3,0.6,0.3h-0.1l-1-0.3c-1.3-0.5-2.8-0.9-4.4-1.4c-6.2-1.8-12.9-3.9-19.3-6.8
			c-6.4-3-12.7-7.1-17.9-12.6c-5.2-5.4-9.1-12.5-11-19.3c-4.4-13.6-4.8-28-2.9-41.6c0.9-6.9,2.5-13.6,4.5-20.1
			c1-3.3,2.1-6.5,3.4-9.7c0.6-1.6,1.3-3.2,2-4.8s1.7-3.5,2.7-5.1c4.1-6.7,9.8-11.7,15.5-15.8c2.8-2.1,5.7-3.9,8.6-5.7s6-3.5,9.1-5
			c12.5-6.2,26.1-10,39.9-11.1c6.9-0.6,13.9-0.5,20.8,0.2c3.5,0.4,6.9,0.9,10.3,1.6c3.4,0.6,7.2,1.7,10.5,3c3.4,1.3,6.8,3,9.7,4.6
			l8.6,4.7l17.1,9.5l-1.3-0.6c1.9,0.6,3.9,0.9,5.9,0.9c1,0,2-0.1,3-0.2c0.5-0.1,1-0.2,1.5-0.3l2-0.5l-1.4,0.5c0,0,0.3-0.2,0.8-0.5
			c0.4-0.3,1-0.8,1.5-1.2c1-0.9,2.1-1.9,3.2-3c2.1-2.1,4.3-4.4,6.3-6.6l-0.8,1.1c3.7-6.3,8.3-12,13.8-16.8c1.4-1.2,2.8-2.4,4.2-3.4
			c0.7-0.6,1.5-1.1,2.2-1.6l2-1.4l4-2.8l1-0.7l0.5-0.3h0.1l0,0l-0.3,0.2c-0.5,0.4-0.5,0.4-0.6,0.5s-0.1,0.2-0.1,0.2
			c0.1-0.2,0.7-0.9,1.1-1.5c0.9-1.4,1.6-2.3,2.1-3.4c0.5-1.1,1-2.2,1.3-3.3c0.7-2.3,0.8-4.6,0.6-6.9c-0.1-1.1-0.4-2.2-0.8-3.3
			s-1-2.4-1.6-3.6c-1.2-2.4-2.8-4.6-4.7-6.9c-3.8-4.5-8.2-8.7-13-12c-1.2-0.8-2.4-1.6-3.7-2.4l-4.2-2.4l-8.5-4.9l-33.8-19.8
			l-1.9-1.1l-0.9-2l-6.3-14.5c-1.1-2.7-1.8-4.3-3-6.1c-1.1-1.8-2.5-3.4-4-4.9s-3.2-2.7-5-3.8l-6.7-3.6l-7-3.7l-3.5-1.9l-0.2-0.1l0,0
			c3.2,5.3-4.4-7.2-3.6-5.9v-0.1V507v-0.4v-0.8l-0.1-1.7c-0.7-8.9-4.9-17-11.9-22.7c-6.9-5.8-16.2-9.1-25.7-10.8l-0.5-0.1l-0.4-0.1
			l-1.4-0.4l-0.9-0.3l-0.8-0.5c-10.9-7.3-22.1-14.5-33.3-21.4c-11.2-6.8-22.6-13.7-34.1-19.1c-1.4-0.7-2.8-1.3-4.2-1.8
			c-1.4-0.6-2.8-1-4.2-1.4c-2.9-0.8-6-1.5-9.2-2.1c-6.3-1.2-12.8-2.2-19.3-3.1c-13-1.8-26.2-3.2-39.3-4.4l-1.5-0.2l-1.2-0.8
			l-24-16.1l0.6,0.3c-19.5-10-42.8-12.6-64.2-6.9l1.1-0.4l-14.1,7.6l-1.2,0.7l-1.3-0.1c-9.2-0.4-18.6-0.8-27.8-1
			c-9.2-0.2-18.6-0.3-27.5,0.3c-8.7,0.8-17.4,3-24.9,7.3c-3.7,2.1-7.2,4.6-10.3,7.6c-1.5,1.5-2.9,3.1-4.2,4.8
			c-1.2,1.6-2.4,3.6-3.1,5.1l-1.3,2.9l-2.9-0.3l-57.5-5.4h0.6c-5.6,0.5-11.1,1.6-15.9,4s-8.8,6-11.2,10.8
			c-2.4,4.7-3.4,10.3-3.5,15.9c0,5.7,0.9,11.4,2.2,17l-0.2-0.4c6.7,15.4,13.2,30.8,19.6,46.4c6.3,15.5,12.7,31.1,18.2,47
			c2.8,8,4.7,16.3,6.2,24.5c1.5,8.3,2.8,16.6,4,24.9C1321.5,627.5,1323.6,644.1,1325.5,660.8z"/>
		<path class="st0" d="M1432.1,531.4c-9.6-8-19.1-16.3-28.6-24.5s-18.9-16.6-28.2-24.9l0,0l-0.1-0.1c-4.1-4.3-7.7-9.2-10.3-14.7
			c-2.7-5.4-4.2-11.5-4.8-17.4c-1.3-11.9,0.7-24.4,6.9-35c0.7-1.4,1.6-2.6,2.5-3.8c0.9-1.2,1.8-2.5,2.8-3.7c2.1-2.2,4.1-4.5,6.6-6.3
			c4.7-4,10.2-6.8,15.8-9c11.4-4.1,23.6-4.9,35.3-3.7c2.9,0.3,5.8,0.9,8.7,1.4c2.9,0.6,5.7,1.4,8.6,2.1c3,0.8,5.9,2.1,8.6,3.7
			l7.4,4.5c9.7,6.2,19.2,12.7,28.3,19.7c4.5,3.5,9,7.2,13.3,11c4.4,3.8,8.3,8.3,11.5,13.2c6.5,9.7,10.4,21,11.1,32.4
			c-2-11.3-6.5-22-13.4-30.8c-3.5-4.4-7.4-8.4-11.8-11.8c-4.4-3.5-9-6.9-13.6-10.2c-9.2-6.6-18.9-12.6-28.6-18.4l-7.3-4.3
			c-2.3-1.3-4.6-2.3-7.2-2.9c-2.7-0.6-5.4-1.3-8.1-1.8c-2.7-0.4-5.5-0.9-8.2-1.2c-10.9-1.1-22.1-0.2-32.2,3.5c-5,2-9.8,4.3-13.9,7.8
			c-2.2,1.5-3.9,3.6-5.8,5.4c-0.9,1-1.6,2.1-2.4,3.1s-1.6,2.1-2.2,3.3l-1.9,3.5l-1.5,3.7l-0.8,1.9c-0.2,0.6-0.3,1.3-0.5,1.9l-1,3.9
			c-0.4,2.7-0.8,5.3-1,8c-0.1,2.7-0.1,5.4,0.1,8.1c0.8,10.8,5.2,21.1,12.6,29.2l-0.1-0.1c9,8.7,18,17.5,26.9,26.4
			C1414.4,513.6,1423.3,522.4,1432.1,531.4z"/>
		<path class="st0" d="M1505.3,509.3c1.5-11,1.4-21.9-0.4-32.4c-1.9-10.4-5.7-20.4-12-28.8c-6-8.5-14.2-15.4-23.4-20.8
			c-9.2-5.5-19.3-9.7-29.8-13.4c11.1,0.9,22.1,3.7,32.3,8.6c5.2,2.3,10,5.5,14.6,9c4.5,3.6,8.5,7.9,11.9,12.5
			c3.3,4.7,6.1,9.9,8.1,15.4c1.9,5.5,3.2,11.1,3.6,16.8C1511.2,487.5,1509.6,499,1505.3,509.3z"/>
		<path class="st0" d="M1452.3,437c2.8-1.9,6.5-1.8,9.8-1.3c1.7,0.2,3.3,0.9,4.9,1.3c1.5,0.6,3.1,1.3,4.6,2.1c6,3.1,11,7.4,15.6,12
			c4.5,4.6,8.5,9.7,12,15.1c3.6,5.3,6.6,11,9,17c-4.8-4.4-9-9.1-13.3-13.7c-4.2-4.6-8.5-9.1-12.7-13.6c-4.3-4.3-8.6-8.7-13.5-12.3
			c-2.4-1.7-4.9-3.5-7.6-4.7C1458.4,437.7,1455.5,436.6,1452.3,437z"/>
		<path class="st0" d="M1384.8,626.8c4.7,11.5,9.9,22.6,15.5,33.6c5.6,10.9,11.8,21.5,18.7,31.5c3.5,5,7.2,9.8,11.1,14.3
			c4,4.5,8.2,8.7,12.8,12.6c9,7.7,19.8,13.2,31.3,14.7l-1.8,5.8c-5.1-3-9.7-6.3-14.3-9.8c-4.6-3.5-9-7.3-13.1-11.4
			c-4.1-4.1-7.9-8.6-10.7-13.7c-2.8-5-4.8-11.2-3.1-16.8c-0.7,5.8,1.9,11.1,5.1,15.5c3.2,4.5,7.3,8.4,11.5,12
			c4.3,3.6,8.8,6.9,13.4,10.1c4.6,3.1,9.5,6.1,14.3,8.8l12.4,7l-14.2-1.2c-13.2-1.1-25.4-7.3-35.2-15.5
			c-9.8-8.3-17.9-18.2-24.7-28.7c-6.8-10.6-12.5-21.7-17.3-33.2C1391.6,650.7,1387.6,638.9,1384.8,626.8z"/>
		<path class="st0" d="M1409.9,704.9c-5.4-0.9-9.8-5.2-12.8-9.8s-5-9.8-6-15.1c-0.6-2.6-0.8-5.3-1-8c0-2.7-0.2-5.3,0.1-7.9
			c0.2-2.6,0.5-5.3,1-7.8c0.6-2.6,1.2-5.1,2.1-7.7c0.7,2.6,1,5.2,1.4,7.7c0.3,2.5,0.8,5.1,1,7.6l1.1,7.4c0.5,2.4,0.8,4.9,1.3,7.3
			c0.9,4.8,2.2,9.5,3.9,14C1403.8,697,1405.9,701.4,1409.9,704.9z"/>
		<path class="st0" d="M1609.4,717.4c2.4,14.2,3.3,28.1,4.3,42l2.5,42c-3.2-6.4-5.2-13.4-6.7-20.4s-2.4-14.1-2.8-21.2
			c-0.5-7.1-0.4-14.2-0.1-21.3C1607,731.5,1607.7,724.4,1609.4,717.4z"/>
		<path class="st0" d="M1751.8,645.6c1,5.1,1.9,10.1,3.1,15.2c1.1,5,2.5,10.2,2.1,15.5c-0.2,5.3-0.7,10.4-1,15.5
			c-0.4,5.2-0.8,10.3-1.3,15.4v-0.4c0.1-1.4-1.2-2.7-2.7-2.6c-0.4,0-0.7,0.1-1.1,0.3c-0.3,0.1-0.7,0.5-0.5,0.3l0.3-0.3
			c0.4-0.4,0.8-0.9,1.2-1.3l2.4-2.9c1.6-1.9,3.2-3.9,4.7-6c3.1-4,6-8.2,8.8-12.4s5.4-8.6,7.8-13c2.3-4.5,4.4-9.1,5.9-14l0.3,1.2
			c-1.6-1.6-4.2-3.1-6.6-4.4c-2.5-1.3-5.1-2.3-7.7-3.2c-2.7-0.9-5.3-1.8-8.1-2.4c-1.4-0.3-2.7-0.7-4.1-1l-2.1-0.5
			c-0.3-0.1-0.7-0.2-1,0C1751.9,644.9,1751.7,645.2,1751.8,645.6z M1751.8,645.6c-0.1-0.3,0.1-0.7,0.4-0.9s0.7-0.1,1,0l2.1,0.4
			c1.4,0.3,2.8,0.6,4.1,0.9c2.7,0.6,5.5,1.2,8.2,1.9c2.7,0.8,5.4,1.5,8.1,2.5s5.3,1.9,8,4l0.5,0.4l-0.1,0.9
			c-0.8,5.3-2.2,10.4-4,15.4s-4.1,9.8-6.7,14.4c-2.6,4.6-5.6,9-8.8,13.2c-1.6,2.1-3.3,4.1-5.1,6.1c-0.9,1-1.8,2-2.8,2.9
			c-0.5,0.5-1,1-1.5,1.4l-0.4,0.4c0.1-0.1-0.5,0.4-0.9,0.6c-0.5,0.2-1,0.4-1.5,0.4c-2.1,0.2-4-1.7-3.9-3.7v-0.3v-0.1
			c0.9-5.1,2-10.1,3-15.2c1.1-5,2.3-10.1,3.2-15.1c1-5,0.3-10.1-0.5-15.2C1753.6,655.7,1752.6,650.7,1751.8,645.6z"/>
		<path class="st0" d="M1782.8,655.2c0,4.2,0.2,8,0.4,11.6c0.2,3.6,0.4,6.9,0.4,10.2v0.3c-0.5,3.6-0.8,7.2-1.4,10.7
			c-0.5,3.6-1,7.1-1.7,10.7l0.1-0.8c0-1.4-1.3-2.7-2.7-2.8c-0.7-0.1-1.5,0.2-2.1,0.6c-0.1,0.1-0.3,0.2-0.3,0.3l0.1-0.1l0.1-0.1
			l0.9-1l1.7-1.8l3.3-3.7c2.2-2.5,4.2-5.1,6-7.8s3.5-5.5,4.8-8.4c1.4-2.9,2.4-6,3.3-9.2l0.7,2c-0.9-0.9-2-1.9-3.1-2.8
			c-1.1-0.9-2.2-1.8-3.4-2.7l-3.5-2.6l-1.8-1.3C1784.1,656.2,1783.5,655.7,1782.8,655.2z M1782.8,655.2c0.6,0.2,1.3,0.4,2.1,0.7
			c0.7,0.2,1.4,0.5,2.1,0.7c1.4,0.5,2.8,1,4.2,1.7c1.4,0.6,2.7,1.3,4.1,2c1.3,0.7,2.6,1.4,4,2.4l0.8,0.6l-0.1,1.4
			c-0.2,3.6-1.1,7.2-2.2,10.6c-1.1,3.5-2.8,6.7-4.6,9.8c-1.9,3.1-4,6-6.3,8.7c-1.1,1.4-2.4,2.7-3.6,3.9l-1.8,1.8l-0.9,0.9l-0.1,0.1
			l-0.1,0.1c-0.1,0.1-0.3,0.3-0.5,0.4c-0.7,0.6-1.8,0.9-2.7,0.8c-1.8-0.1-3.5-1.8-3.5-3.6v-0.5l0.1-0.3c0.7-3.5,1.5-7,2.3-10.5
			s1.7-7,2.6-10.5v0.3c0.6-3.9,1.3-7.8,2-11.4L1782.8,655.2z"/>
		<path class="st0" d="M1751.6,644.6c0,0-44.7-3.3-65.8,16.1c-21.2,19.4-31.8,15.5-32.5,81.9c0,0-0.7,12,8.6,24.7
			c-2-2.9-5.5-8.9-6.7-16.8c0,0,22.4,2.7,36.7-1.6c0.7-0.2,1.3,0.7,0.7,1.2c-5.8,5.9-19.6,21.5-29.2,19.1
			c7.3,8.9,19.8,17.8,41.2,22.8l-4.3,11c0,0,18.9-22.2,3.6-54.4l-6.7-14.2c-0.6-1.7-1.4-3.3-2.2-5c-8-15.7-6.5-32.1-1.8-41
			c4.9-9.2,14.7-14.9,25.1-15.7l35.9-2.5h1.8L1751.6,644.6z"/>
		<path class="st0" d="M1701.1,753.4c5.4-0.5,10.8-1.2,16.1-2.2c2.6-0.5,5.2-1.1,7.8-1.9c1.3-0.4,2.5-0.8,3.7-1.3l1.8-0.8l0.4-0.2
			c0.3-0.1,0.6-0.1,0.9-0.1c0.6,0,1.2,0.4,1.6,0.8c0.4,0.5,0.6,1.1,0.5,1.7c0,0.6-0.6,1.3-0.6,1.3c-3.2,4.4-6.7,8.7-10.7,12.6
			c-2,1.9-4.2,3.7-6.7,5.2c-2.4,1.5-5.4,2.7-8.6,2.3l-0.8-0.1l-0.2-0.7C1704.3,764.2,1702.7,758.5,1701.1,753.4z M1701.1,753.4
			c2.6,5.8,5.3,10.8,7.5,15.7l-1-0.8c2.3,0.1,4.6-1,6.7-2.4s4-3.2,5.9-5c3.7-3.8,7.1-7.9,10.4-12.2c0.2-0.3-0.1,0.1-0.1,0.4
			c0,0.3,0.1,0.6,0.2,0.8c0.2,0.2,0.4,0.3,0.7,0.4c0.3,0,0.6-0.2,0.3,0l-2,0.7c-1.3,0.4-2.7,0.9-4,1.2c-2.7,0.7-5.5,1.1-8.2,1.4
			C1712.1,754.1,1706.6,754.1,1701.1,753.4z"/>
		<g>
			<path class="st0" d="M1634.6,511.5c0,0,0.3,10.1,20.2,13.6c0,0,18.3,1.9,28.8,19.9c0,0,5.1,4.1,9.8,3.2c0,0,7.3-2.2,11.1-6.3
				c0,0,7.3,0.3,17.4-2.5l23.7-2.8c0,0-42.4-6.3-37-7.3c0,0-6.9-31-51.5-12.5C1657.1,516.7,1638.4,515.6,1634.6,511.5z
				 M1671.9,527.9c1.8-4.5,5.1-8.1,8.5-10.7c5-4,12.5-1.6,18.2,1.2c0,0,6.6,3.5,4.5,13.4c-1,4.9-4.7,8.8-9.2,10.9l-3.8,1.7
				C1687.1,537.1,1671.9,527.9,1671.9,527.9z"/>
			<ellipse class="st0" cx="1693.5" cy="527.1" rx="3.4" ry="7.1"/>
		</g>
		<path class="st0" d="M1762.4,514.1c-5.3-6.2-9.8-11.7-15.1-16.4c-2.6-2.4-5.4-4.6-8.4-6.5c-3-2.2-6.3-3.7-9.8-5.9
			c4-0.7,8.3-0.5,12.2,0.9c4,1.3,7.7,3.5,10.7,6.3c3.1,2.8,5.6,6.2,7.4,9.8C1761.2,506,1762.5,510,1762.4,514.1z"/>
		<path class="st0" d="M1840.8,650.3c-1.4-4.9-2.7-9.5-4.9-13.9c-2.1-4.3-4.4-8.4-7.2-12.3c-2.8-3.8-5.8-7.5-9.2-10.8
			c-3.3-3.4-7-6.5-10.6-9.3l-0.2-0.1l-3-2.7c-0.9-1.1-1.8-2.1-2.5-3.3c-1.6-2.3-2.5-5.4-2.2-8.3c0.2-3,1.7-5.5,3.4-7.4
			c1.8-1.9,3.9-3.4,6.2-4.4c-3.3,3.5-5.9,8-5.4,11.9c0.3,1.9,1.1,3.6,2.5,5.1c0.6,0.8,1.5,1.4,2.2,2.2l2.6,2l-0.2-0.1
			c4.7,2.7,8.5,6,12.3,9.6c3.6,3.7,6.9,7.8,9.6,12.3c2.8,4.4,4.7,9.3,5.9,14.4C1841.4,640,1841.4,645.3,1840.8,650.3z"/>
		<path class="st0" d="M1838.2,626.6c2.5-0.5,4.9-0.9,7.1-1.6c1.1-0.3,2.2-0.7,2.8-1.1c0.4-0.2,0.5-0.5,0.4-0.5
			c-0.2,0-0.3,0.4-0.3,0.4c-0.1,0-0.6-0.8-1.4-1.4c-0.7-0.7-1.6-1.3-2.5-2c-1.8-1.3-3.7-2.6-5.6-3.9c-3.9-2.5-7.9-5.2-11.8-7.9
			c-3.9-2.8-7.9-5.6-11.5-9.1c5,0.9,9.6,2.4,14.1,4.3c4.5,1.9,8.9,4.1,13.1,6.8c2.1,1.4,4.1,2.9,6,4.6c1,0.9,1.9,1.8,2.8,3
			c0.9,1.1,1.9,2.4,2.2,4.7c0.2,1.1-0.3,2.9-1.2,3.7c-0.9,0.9-1.8,1.3-2.6,1.4c-1.6,0.4-2.9,0.4-4.2,0.3
			C1843,628.2,1840.5,627.6,1838.2,626.6z"/>
		<path class="st0" d="M1857.2,622.5c-0.7-5.3-1.9-10-4-14.4c-1-2.2-2.3-4.3-3.8-6.2c-1.4-2-3.2-3.8-5-5.9c2.5,0.8,5,2.2,7,4
			c2.1,1.8,3.7,4.1,4.9,6.6c1.2,2.5,1.9,5.2,2.1,7.9C1858.6,617.2,1858.3,620,1857.2,622.5z"/>
	</g>
	<g>
		<path class="st0" d="M273.3,525.8l-0.2-0.2c0,0,17.2-8.9,24.5-19.3c7-10,9.2-20.3,9.7-31.5c1.1-23.2-14.3-44.1-36.3-51.5l-10-4.4
			c-9-4-18.8-6-28.6-6h-130v178.8l64.4,17.7l-1.6-56.4h62.1c0.5,0,1.4,0.3,2.5,0.9c14.4,7,18.4,25.7,8.6,38.3l-2.2,2.9l-58.2,1.5
			V640h88.6l5.2-0.3C345.6,628.2,326.3,533.7,273.3,525.8z M237.6,489.1l-1.2,0.6c-4.4,2.4-9.4,3.6-14.4,3.6h-56.8V453h54
			c3.7,0,7.3,0.8,10.6,2.4l7,3.3C249.4,464.9,249.8,482.5,237.6,489.1z"/>
		<path class="st0" d="M329.2,630l128.4-210.5c2.5-4.1,7-6.6,11.8-6.6h49.1c5.9,0,10.5,4.9,10.2,10.8l-10.3,174
			c-0.2,2.8-2.1,5.2-4.8,5.9l-47.9,7.4c-2.7,0.8-5.4-1.4-5.3-4.2l4.2-88.9c0.1-1.9-2.4-2.7-3.4-1.1l-75,112.9
			c-2.1,3.1-5.6,4.9-9.4,4.9h-45C329.4,634.6,328,632,329.2,630z"/>
		<path class="st0" d="M559.2,634.3V408c0-1.8,1.4-3.2,3.2-3.2H614c1.8,0,3.2,1.4,3.2,3.2v180.5c0,1.7,1.4,3.2,3.1,3.2l86.5,1.5
			c1.2,0,2.2,0.7,2.8,1.7l15.9,37.9c1.2,2.1-0.4,4.7-2.8,4.7H562.4C560.7,637.5,559.2,636.1,559.2,634.3z"/>
		<path class="st0" d="M979.1,572.7V409.9c0-2.8,2.3-5.1,5.1-5.1h49.7c1.9,0,3.7,1.1,4.6,2.8l70,139.9c1.8,3.7,7.1,3.8,9.1,0.2
			l74.3-132.3c0.9-1.6,2.6-2.6,4.5-2.6h43.4c2.8,0,5.1,2.3,5.1,5.1v216.8c0,2.8-2.3,5.1-5.1,5.1H1200c-2.8,0-5.1-2.3-5.1-5.1
			l-1.3-86.2c-0.1-4.7-5.9-6.8-9-3.3l-68.5,90.5c-2.1,2.4-5.8,2.3-7.9-0.1L1045,547c-3.1-3.8-9.3-1.5-9.1,3.4l0.9,35.3
			c0.1,3.5-3.2,6-6.5,5.1l-47.5-13.2C980.6,577,979.1,575,979.1,572.7z"/>
		<path class="st0" d="M747,627.4l128.4-210.5c2.5-4.1,7-6.6,11.8-6.6h49.1c5.9,0,10.5,4.9,10.2,10.8l-10.3,174
			c-0.2,2.8-2.1,5.2-4.8,5.9l-47.9,7.4c-2.7,0.8-5.4-1.4-5.3-4.2l4.2-88.9c0.1-1.9-2.4-2.7-3.4-1.1l-75,112.9
			c-2.1,3.1-5.6,4.9-9.4,4.9h-45C747.2,632,745.7,629.4,747,627.4z"/>
	</g>
	<g>
		<path d="M1051,794.8c1.4,8.2,2.9,16.4,4.4,24.8c-12.3,0-24.3,0-36.8,0c-0.9-4.5-1.8-9.1-2.7-13.9c-14.6,0-28.9,0-43.3,0.1
			c-0.8,0-1.7,1-2.5,1.6c-0.4,0.3-0.4,1-0.7,1.5c-1.6,3.5-2.3,8.5-5,10.2c-2.8,1.8-7.6,0.6-11.5,0.6c-8,0-15.9,0-24.5,0
			c3.2-7.8,6.2-15.2,9.2-22.5c17.4-42.5,34.8-85,52-127.5c1.4-3.4,3-4.6,6.7-4.5c10.5,0.3,21,0.1,32.1,0.1
			c6.5,37.4,12.9,74.6,19.3,111.2c1.7-0.5,2.8-1.2,4-1.2c10-0.1,19.9,0.1,29.9-0.1c2.6,0,3.2,1.3,4.1,3.2c2.6,5.5,7.9,8.1,13.8,7
			c6.8-1.4,12-7.2,12.5-14c0.3-5.3-3.3-11-8.8-12.5c-3.7-1-7.8-0.7-11.6-1.3c-21.5-3.8-37.4-25-35-46.6c2.8-25,20.2-43.4,45-47.5
			c25-4.1,49.2,17,48.5,42.4c0,0.5-0.2,1.1-0.3,2.1c-7.2,0-14.3,0-21.4,0c-2.8,0-5.6-0.1-8.4,0c-3.5,0.2-6.1-0.1-7.9-4.1
			c-2.1-4.5-7.2-5.4-12.1-3.3c-5,2.2-8.3,7.8-7.3,12.5c1,4.9,4.9,8.2,10.3,8.2c22.9-0.3,40.8,18,44.2,37.7
			c4.6,26.8-13.5,54.4-40.1,61.5C1084.3,826.6,1063.2,818.2,1051,794.8z M986.2,767.9c8,0,15.4,0,23.3,0
			c-2.3-12.8-4.6-25.2-6.8-37.6c-0.3,0-0.6,0-0.8,0C996.7,742.6,991.5,755,986.2,767.9z"/>
		<path d="M301.5,732.4c9.6,10.7,12.9,23.5,11.7,37.9c-2.1,25.2-26.7,49-52,49.4c-20.5,0.3-40.9,0.1-62,0.1
			c0.4-5.4,0.7-10.5,1.3-15.5c2.7-27.2,5.5-54.4,8.1-81.5c1.8-18.1,3.5-36.3,5.1-54.4c0.2-2.5,0.9-3.4,3.5-3.4
			c19.8,0.1,39.6-0.3,59.4,0.1c20.5,0.5,37.4,21.4,34.3,41.8c-0.7,4.5-1.6,9.1-3.1,13.4C306.1,724.4,303.6,728.2,301.5,732.4z
			 M241.3,756.5c-0.9,8.6-1.7,17-2.5,25.5c8.9,0,17.3,0.4,25.6-0.1c5.6-0.3,9.3-4.3,11.3-9.5c2.7-7-1.5-15.4-8.4-15.8
			C258.8,756.1,250.2,756.5,241.3,756.5z M245.2,718.7c8.3,0,16.4,0.3,24.5-0.1c5.4-0.2,10-5.9,10.3-11.6c0.2-4.6-3.2-9.8-7.8-10
			c-8.2-0.5-16.4-0.1-24.9-0.1C246.6,704.1,245.9,711.2,245.2,718.7z"/>
		<path d="M487,803.3c-11.5,9.2-24.1,15.3-38.3,17.8c-17.3,3-34.3,2.3-49.5-7.5c-25.7-16.7-38.1-40.2-33.7-71.1
			c5.6-39,28-64.6,65.2-76c25.6-7.9,49.7-3.3,70.2,15.1c1.9,1.7,4.1,3,6.3,4.7C496,696.4,486,705.4,476,714.4
			c-2.5-2-4.7-4.1-7.3-5.8c-15-10.3-36-7.9-50.5,6.1c-11.6,11.1-17.9,24.7-14.3,40.9c5.5,24.8,31.7,35.5,54.7,22.8
			c4-2.2,5.8-1.6,8.5,1.6C473.4,787.7,480.2,795.3,487,803.3z"/>
		<path d="M689,687.1c-10.1,9.1-20,18-30,27c-0.3-0.1-0.7-0.2-1-0.4c-18-19-45.3-12.7-59.9,3.8c-10.6,12-15.5,25.9-10.3,41.6
			c7.4,22,31.3,30.7,52.7,19.7c1.7-0.9,3.4-1.9,5.7-3.1c7.8,9,15.6,18.1,24.2,28.1c-6.3,3.7-11.9,7.8-18.2,10.6
			c-23.4,10.4-47.4,13.1-70.1-1c-25.9-16-37.7-39.8-33.9-70.6c4.7-37.8,32-68.9,69-77.5c25.5-5.9,48.7-0.9,68.1,17.7
			C686.5,684.2,687.6,685.6,689,687.1z"/>
		<path d="M866.2,665.2c-0.9,12.5-1.7,24.7-2.6,37.1c-9.9,0-19.4,0-28.9,0c-0.3,0-0.5-0.1-0.8-0.1c-9.6-0.9-9.6-0.9-10.2,8.6
			c-0.2,3-0.6,6.1-0.9,9.7c11.7,0,23,0,34.8,0c-0.9,12.8-1.8,25-2.7,37.6c-11.5,0-22.7,0-34.4,0c-0.6,8.2-1.3,16-1.9,24.5
			c13.4,0,26.4,0,39.7,0c-0.9,12.7-1.8,24.8-2.6,37.1c-25.4,0-50.6,0-76.5,0c3.6-51.4,7.2-102.7,10.8-154.3
			C815.4,665.2,840.4,665.2,866.2,665.2z"/>
		<path d="M929.7,702.6c-3.3,39.2-6.6,78-9.9,117c-12.5,0-24.6,0-37.2,0c3.3-38.9,6.5-77.7,9.8-117c-9.3,0-18,0-27.3,0
			c0.7-9,1.4-17.5,2.1-26c0.1-1.4,0.4-2.8,0.4-4.2c0.3-8.3-0.3-7,7.1-7c26.4-0.1,52.8,0,79.2,0c1.7,0,3.3,0,5.8,0
			c-1,12.5-2,24.7-3,37.2C947.6,702.6,938.8,702.6,929.7,702.6z"/>
		<path d="M730.5,665.4c-2.8,39.2-5.5,77.8-8.2,117c13.4,0,26.4,0,39.7,0c-0.9,12.7-1.7,24.8-2.6,37.2c-25.5,0-50.8,0-76.6,0
			c0.5-7.2,0.9-14.3,1.4-21.4c1.3-18.5,2.6-36.9,4-55.4c1.3-18.3,2.6-36.6,3.9-54.9c0.4-6.3,0.7-12.6,1.4-18.9
			c0.1-1.3,1.5-3.4,2.4-3.4C707.1,665.3,718.5,665.4,730.5,665.4z"/>
		<path d="M324.8,665.5c12.4,0,24.2,0,36.6,0c-1.8,51.4-3.5,102.6-5.3,154c-12.2,0-24,0-36.6,0C321.2,768.3,323,717.1,324.8,665.5z"
			/>
		<path d="M507.7,665.6c12.4,0,24.3,0,36.6,0c-1.8,51.4-3.5,102.5-5.3,153.9c-12.2,0-24.2,0-36.6,0
			C504.2,768.2,505.9,717.1,507.7,665.6z"/>
	</g>
</g>
</svg>
